<svg xmlns="http://www.w3.org/2000/svg" viewBox="0 0 22 22"><path d="M9 6v2m4 0V6m-4 4.4V8a2 2 0 1 1 4 0v2.4M6 15H3l-2 2.5M16 15h3l2 2.5M6.42 17 4 20l1 2m10.58-5L18 20l-1 2M7 12l-4-1-2-3m14 4 4-1 2-3M8 11 4.5 6 7 2m7 9 3.5-5L15 2M7 18a5 5 0 1 1 8 0s-2 3-4 4c-2-1-4-4-4-4" fill="none" stroke="#8355EE" stroke-width=".6"/><path d="M12.728 3.98V1.983L11 1.062l-1.728.921V3.98L11 4.902zm-3.648.115 3.84-2.227m-3.84 0 3.84 2.227M11 .87v4.224m.96-1.556V2.425l-.96-.5-.96.5v1.113l.96.5z" fill="none" stroke="#84EBC3" stroke-width=".3"/></svg>